<svg width="100%" viewBox="0 0 680 490" role="img" xmlns="http://www.w3.org/2000/svg">
<title>Stony Creek Governance Risk and Compliance — Nautical compass rose logo</title>
<desc>16-point nautical compass rose in navy and blue</desc>

<defs>
  <clipPath id="innerRing"><circle cx="340" cy="200" r="108"/></clipPath>
</defs>

<circle cx="340" cy="200" r="168" fill="none" stroke="#0D2B52" stroke-width="2"/>
<circle cx="340" cy="200" r="162" fill="#F0F4F8" stroke="#0D2B52" stroke-width="1"/>

<g stroke="#0D2B52" stroke-width="1.2">
  <line x1="340" y1="38"  x2="340" y2="48"/>
  <line x1="340" y1="352" x2="340" y2="362"/>
  <line x1="172" y1="200" x2="182" y2="200"/>
  <line x1="498" y1="200" x2="508" y2="200"/>
  <line x1="459" y1="81"  x2="452" y2="89"/>
  <line x1="221" y1="81"  x2="228" y2="89"/>
  <line x1="221" y1="319" x2="228" y2="311"/>
  <line x1="459" y1="319" x2="452" y2="311"/>
</g>
<g stroke="#0D2B52" stroke-width="0.7" opacity="0.5">
  <line x1="382" y1="40"  x2="380" y2="47"/>
  <line x1="298" y1="40"  x2="300" y2="47"/>
  <line x1="382" y1="360" x2="380" y2="353"/>
  <line x1="298" y1="360" x2="300" y2="353"/>
  <line x1="173" y1="158" x2="180" y2="160"/>
  <line x1="173" y1="242" x2="180" y2="240"/>
  <line x1="507" y1="158" x2="500" y2="160"/>
  <line x1="507" y1="242" x2="500" y2="240"/>
  <line x1="487" y1="65"  x2="481" y2="72"/>
  <line x1="193" y1="65"  x2="199" y2="72"/>
  <line x1="193" y1="335" x2="199" y2="328"/>
  <line x1="487" y1="335" x2="481" y2="328"/>
  <line x1="434" y1="47"  x2="429" y2="54"/>
  <line x1="246" y1="47"  x2="251" y2="54"/>
  <line x1="246" y1="353" x2="251" y2="346"/>
  <line x1="434" y1="353" x2="429" y2="346"/>
</g>

<circle cx="340" cy="200" r="148" fill="#1B3A6B"/>
<circle cx="340" cy="200" r="128" fill="#E8EFF6"/>
<circle cx="340" cy="200" r="108" fill="#F0F4F8"/>

<g clip-path="url(#innerRing)">
  <path d="M340,200 L340,92 Q420,92 420,200 Z" fill="#4A8FB5" opacity="0.12"/>
  <path d="M340,200 L340,308 Q260,308 260,200 Z" fill="#4A8FB5" opacity="0.12"/>
  <path d="M340,92  L347,192 L340,184 L333,192 Z" fill="#1B3A6B"/>
  <path d="M340,92  L340,184 L333,192 Z" fill="#4A8FB5"/>
  <path d="M340,308 L347,208 L340,216 L333,208 Z" fill="#1B3A6B"/>
  <path d="M340,308 L340,216 L347,208 Z" fill="#4A8FB5"/>
  <path d="M448,200 L348,193 L356,200 L348,207 Z" fill="#1B3A6B"/>
  <path d="M448,200 L356,200 L348,193 Z" fill="#4A8FB5"/>
  <path d="M232,200 L332,193 L324,200 L332,207 Z" fill="#1B3A6B"/>
  <path d="M232,200 L324,200 L332,207 Z" fill="#4A8FB5"/>
  <path d="M416,126 L344,196 L348,200 L418,130 Z" fill="#1B3A6B"/>
  <path d="M416,126 L348,200 L344,196 Z" fill="#6AACCC"/>
  <path d="M416,274 L344,204 L348,200 L418,270 Z" fill="#1B3A6B"/>
  <path d="M416,274 L348,200 L344,204 Z" fill="#6AACCC"/>
  <path d="M264,274 L336,204 L332,200 L262,270 Z" fill="#1B3A6B"/>
  <path d="M264,274 L332,200 L336,204 Z" fill="#6AACCC"/>
  <path d="M264,126 L336,196 L332,200 L262,130 Z" fill="#1B3A6B"/>
  <path d="M264,126 L332,200 L336,196 Z" fill="#6AACCC"/>
  <path d="M376,107 L342,196 L340,192 L374,105 Z" fill="#2A5A8B" opacity="0.8"/>
  <path d="M376,107 L340,192 L342,196 Z" fill="#88C4DC" opacity="0.8"/>
  <path d="M423,157 L348,198 L352,196 L425,155 Z" fill="#2A5A8B" opacity="0.8"/>
  <path d="M423,157 L352,196 L348,198 Z" fill="#88C4DC" opacity="0.8"/>
  <path d="M423,243 L348,202 L352,204 L425,245 Z" fill="#2A5A8B" opacity="0.8"/>
  <path d="M423,243 L352,204 L348,202 Z" fill="#88C4DC" opacity="0.8"/>
  <path d="M376,293 L342,204 L340,208 L374,295 Z" fill="#2A5A8B" opacity="0.8"/>
  <path d="M376,293 L340,208 L342,204 Z" fill="#88C4DC" opacity="0.8"/>
  <path d="M304,293 L338,204 L340,208 L306,295 Z" fill="#2A5A8B" opacity="0.8"/>
  <path d="M304,293 L340,208 L338,204 Z" fill="#88C4DC" opacity="0.8"/>
  <path d="M257,243 L332,202 L328,204 L255,245 Z" fill="#2A5A8B" opacity="0.8"/>
  <path d="M257,243 L328,204 L332,202 Z" fill="#88C4DC" opacity="0.8"/>
  <path d="M257,157 L332,198 L328,196 L255,155 Z" fill="#2A5A8B" opacity="0.8"/>
  <path d="M257,157 L328,196 L332,198 Z" fill="#88C4DC" opacity="0.8"/>
  <path d="M304,107 L338,196 L340,192 L306,105 Z" fill="#2A5A8B" opacity="0.8"/>
  <path d="M304,107 L340,192 L338,196 Z" fill="#88C4DC" opacity="0.8"/>
</g>

<circle cx="340" cy="200" r="108" fill="none" stroke="#1B3A6B" stroke-width="2.5"/>
<circle cx="340" cy="200" r="104" fill="none" stroke="#4A8FB5" stroke-width="0.8"/>
<circle cx="340" cy="200" r="6" fill="#1B3A6B"/>
<circle cx="340" cy="200" r="3" fill="#4A8FB5"/>

<text x="340" y="66"  font-family="Georgia,serif" font-size="22" font-weight="700" fill="#000000" text-anchor="middle">N</text>
<text x="340" y="342" font-family="Georgia,serif" font-size="22" font-weight="700" fill="#000000" text-anchor="middle">S</text>
<text x="202" y="208" font-family="Georgia,serif" font-size="22" font-weight="700" fill="#000000" text-anchor="middle">W</text>
<text x="478" y="208" font-family="Georgia,serif" font-size="22" font-weight="700" fill="#000000" text-anchor="middle">E</text>

<text x="424" y="148" font-family="Georgia,serif" font-size="13" font-weight="700" fill="#88C4DC" text-anchor="middle">NE</text>
<text x="424" y="262" font-family="Georgia,serif" font-size="13" font-weight="700" fill="#88C4DC" text-anchor="middle">SE</text>
<text x="256" y="262" font-family="Georgia,serif" font-size="13" font-weight="700" fill="#88C4DC" text-anchor="middle">SW</text>
<text x="256" y="148" font-family="Georgia,serif" font-size="13" font-weight="700" fill="#88C4DC" text-anchor="middle">NW</text>

<text x="340" y="402" font-family="Georgia,serif" font-size="32" font-weight="700" fill="#1B3A6B" text-anchor="middle" letter-spacing="2">STONY CREEK</text>
<text x="340" y="436" font-family="Georgia,serif" font-size="18" font-weight="700" fill="#1B3A6B" text-anchor="middle" letter-spacing="3">GOVERNANCE, RISK AND COMPLIANCE</text>
<rect x="100" y="444" width="480" height="2.5" fill="#C9A84C"/>
<text x="340" y="464" font-family="'Barlow',Arial,sans-serif" font-size="10" font-weight="400" fill="#4A8FB5" text-anchor="middle" letter-spacing="2">DANIEL DWYER  ·  ATTORNEY &amp; CHIEF COMPLIANCE OFFICER</text>

<line x1="40"  y1="14"  x2="54"  y2="14"  stroke="#C9A84C" stroke-width="1.2"/>
<line x1="40"  y1="14"  x2="40"  y2="28"  stroke="#C9A84C" stroke-width="1.2"/>
<line x1="640" y1="14"  x2="626" y2="14"  stroke="#C9A84C" stroke-width="1.2"/>
<line x1="640" y1="14"  x2="640" y2="28"  stroke="#C9A84C" stroke-width="1.2"/>
<line x1="40"  y1="482" x2="54"  y2="482" stroke="#C9A84C" stroke-width="1.2"/>
<line x1="40"  y1="482" x2="40"  y2="468" stroke="#C9A84C" stroke-width="1.2"/>
<line x1="640" y1="482" x2="626" y2="482" stroke="#C9A84C" stroke-width="1.2"/>
<line x1="640" y1="482" x2="640" y2="468" stroke="#C9A84C" stroke-width="1.2"/>
</svg>
